<?xml version="1.0" encoding="UTF-8"?><svg id="_レイヤー_1" xmlns="http://www.w3.org/2000/svg" viewBox="0 0 1206 161.57"><path d="m0,155.07V6.5c0-2.1,1.15-3.44,3.25-3.44h51.94c42.97,0,65.31,19.48,65.31,56.9s-22.34,57.1-65.31,57.1h-16.23v38c0,2.1-1.34,3.44-3.44,3.44H3.25c-2.1,0-3.25-1.34-3.25-3.44h0ZM80.2,59.59c0-17-9.93-23.49-25.97-23.49h-15.28v47.93h15.28c16.04,0,25.97-6.68,25.97-24.44Z" style="fill:#1c3251;"/><path d="m133.87,120.12c-.19-.57-.19-.96-.19-1.34,0-1.34.95-2.48,2.48-2.86l29.41-7.26c.38,0,.76-.19,1.15-.19,1.34,0,2.48.76,3.06,2.29,4.58,11.27,12.41,16.04,25.02,16.04,10.12,0,17.19-3.44,17.19-10.7,0-7.83-6.87-11.65-19.67-16.23l-16.23-5.73c-23.68-8.21-38.76-23.68-38.76-46.78,0-27.88,24.82-47.36,55.76-47.36,25.97,0,46.78,12.03,55.57,38.38.19.38.19.95.19,1.34,0,1.53-.95,2.48-2.48,2.86l-30.74,8.4c-.57.19-.95.19-1.34.19-1.53,0-2.29-.76-3.06-2.29-4.58-11.08-10.88-14.13-18.71-14.13-8.59,0-14.9,3.82-14.9,10.5s5.73,10.88,21.58,16.23l11.65,3.82c27.5,9.36,41.06,23.3,41.06,48.89,0,27.5-23.87,47.36-58.24,47.36-29.41,0-51.18-14.7-59.77-41.44h-.03Z" style="fill:#1c3251;"/><path d="m267.73,80.78C267.73,32.66,301.91.01,348.12.01s80.2,32.65,80.2,80.77-33.99,80.78-80.2,80.78-80.39-32.65-80.39-80.78h0Zm80.39,42.39c23.49,0,39.34-17.38,39.34-42.39s-15.85-42.39-39.34-42.39-39.53,17.38-39.53,42.39,16.04,42.39,39.53,42.39Z" style="fill:#1c3251;"/><path d="m450.1,155.07v-9.74c0-1.72.57-2.86,1.53-4.01l39.72-44.3c21-23.49,27.12-33.99,27.12-45.26,0-9.17-6.49-14.51-16.42-14.51-9.17,0-16.23,5.35-20.43,16.61-.76,2.1-2.1,2.86-4.01,2.29l-28.45-7.83c-2.1-.38-2.87-1.91-2.29-4.01C454.7,17,476.09,0,504.73,0c31.89,0,53.66,19.1,53.66,47.36,0,21.96-8.97,38.76-41.25,68.74l-5.73,5.35h47.74c2.1,0,3.24,1.34,3.24,3.25v30.36c0,2.1-1.15,3.44-3.24,3.44h-105.79c-2.1,0-3.25-1.34-3.25-3.44h0Z" style="fill:#1c3251;"/><path d="m697.08,121.65c0,29.6-25.59,39.91-46.4,39.91s-39.34-12.79-43.73-20.24l11.46-8.98c4.01,5.16,15.66,15.09,32.27,15.09s31.89-8.02,31.89-25.4c0-37.04-76.57-19.29-71.8-69.51,3.06-27.88,27.31-34.95,44.11-34.95s32.84,7.07,40.67,16.61l-11.08,9.55c-3.63-4.58-14.7-11.65-29.6-11.65s-27.31,6.68-29.41,21.2c-5.73,36.47,71.61,17.38,71.61,68.36h0Z" style="fill:#1c3251;"/><path d="m792.18,135.02l9.93,9.36c-4.77,4.58-19.48,17.19-39.91,17.19-25.21,0-48.31-20.24-48.31-48.5s18.91-50.22,47.74-50.22c26.35,0,46.4,20.62,46.4,50.22v5.73h-79.82c2.86,16.42,16.61,29.03,33.99,29.03s27.88-10.5,29.98-12.79v-.02Zm-30.55-59.2c-19.48,0-31.13,12.6-33.42,29.79h65.5c-4.01-24.63-20.05-29.79-32.08-29.79Z" style="fill:#1c3251;"/><path d="m907.72,64.17h13.56v96.05h-13.56v-18.14c-7.06,8.97-18.91,19.48-35.71,19.48-30.75,0-49.08-25.01-49.08-49.46s19.29-49.27,47.74-49.27c18.14,0,29.79,7.64,37.05,17.76v-16.42h0Zm-37.24,83.83c19.1,0,34.56-16.04,34.56-35.9s-15.47-35.71-34.56-35.71-34.75,16.04-34.75,35.71,15.47,35.9,34.75,35.9Z" style="fill:#1c3251;"/><path d="m997.85,62.84h1.72l-7.64,14.32c-21.77,3.25-29.22,25.4-30.36,29.41v53.66h-13.94v-96.05h13.94v16.23c8.4-10.31,19.86-17.57,36.28-17.57Z" style="fill:#1c3251;"/><path d="m1066.79,62.84c18.71,0,30.74,9.74,36.28,15.28l-10.12,9.36c-6.87-6.68-16.23-11.46-26.16-11.46-20.24,0-36.47,16.61-36.47,36.28s16.8,36.09,36.85,36.09c10.12,0,19.1-4.58,25.59-11.46l10.12,9.55c-5.54,5.73-17.19,15.09-37.43,15.09-25.97,0-49.08-21.96-49.08-49.27s23.49-49.46,50.41-49.46h.01Z" style="fill:#1c3251;"/><path d="m1165.71,62.84c25.4,0,40.29,20.24,40.29,41.25v56.14h-13.94v-56.14c0-10.12-7.06-27.5-27.12-27.5-22.72,0-27.31,22.53-28.07,28.83v54.8h-13.94V18.92h13.94v58.62c5.92-8.4,14.32-14.7,28.83-14.7h0Z" style="fill:#1c3251;"/></svg>