<?xml version="1.0" encoding="UTF-8"?><svg id="_レイヤー_1" xmlns="http://www.w3.org/2000/svg" viewBox="0 0 1206 231.43"><path d="m0,155.06V6.49c0-2.1,1.15-3.44,3.25-3.44h51.94c42.97,0,65.31,19.48,65.31,56.9s-22.34,57.1-65.31,57.1h-16.23v38c0,2.1-1.34,3.44-3.44,3.44H3.25c-2.1,0-3.25-1.34-3.25-3.44ZM80.2,59.58c0-17-9.93-23.49-25.97-23.49h-15.28v47.93h15.28c16.04,0,25.97-6.68,25.97-24.44Z" style="fill:#fff;"/><path d="m133.87,120.11c-.19-.57-.19-.96-.19-1.34,0-1.34.95-2.48,2.48-2.86l29.41-7.26c.38,0,.76-.19,1.15-.19,1.34,0,2.48.76,3.06,2.29,4.58,11.27,12.41,16.04,25.02,16.04,10.12,0,17.19-3.44,17.19-10.7,0-7.83-6.87-11.65-19.67-16.23l-16.23-5.73c-23.68-8.21-38.76-23.68-38.76-46.78,0-27.88,24.82-47.36,55.76-47.36,25.97,0,46.78,12.03,55.57,38.38.19.38.19.95.19,1.34,0,1.53-.95,2.48-2.48,2.86l-30.74,8.4c-.57.19-.95.19-1.34.19-1.53,0-2.29-.76-3.06-2.29-4.58-11.08-10.88-14.13-18.71-14.13-8.59,0-14.9,3.82-14.9,10.5s5.73,10.88,21.58,16.23l11.65,3.82c27.5,9.36,41.06,23.3,41.06,48.89,0,27.5-23.87,47.36-58.24,47.36-29.41,0-51.18-14.7-59.77-41.44Z" style="fill:#fff;"/><path d="m267.73,80.77c0-48.12,34.18-80.77,80.39-80.77s80.2,32.65,80.2,80.77-33.99,80.78-80.2,80.78-80.39-32.65-80.39-80.78Zm80.39,42.39c23.49,0,39.34-17.38,39.34-42.39s-15.85-42.39-39.34-42.39-39.53,17.38-39.53,42.39,16.04,42.39,39.53,42.39Z" style="fill:#fff;"/><path d="m450.1,155.06v-9.74c0-1.72.57-2.86,1.53-4.01l39.72-44.3c21-23.49,27.12-33.99,27.12-45.26,0-9.17-6.49-14.51-16.42-14.51-9.17,0-16.23,5.35-20.43,16.61-.76,2.1-2.1,2.86-4.01,2.29l-28.45-7.83c-2.1-.38-2.87-1.91-2.29-4.01,7.83-27.31,29.22-44.3,57.86-44.3,31.89,0,53.66,19.1,53.66,47.36,0,21.96-8.97,38.76-41.25,68.74l-5.73,5.35h47.74c2.1,0,3.24,1.34,3.24,3.25v30.36c0,2.1-1.15,3.44-3.24,3.44h-105.79c-2.1,0-3.25-1.34-3.25-3.44Z" style="fill:#fff;"/><path d="m697.08,121.64c0,29.6-25.59,39.91-46.4,39.91s-39.34-12.79-43.73-20.24l11.46-8.98c4.01,5.16,15.66,15.09,32.27,15.09s31.89-8.02,31.89-25.4c0-37.04-76.57-19.29-71.8-69.51,3.06-27.88,27.31-34.95,44.11-34.95s32.84,7.07,40.67,16.61l-11.08,9.55c-3.63-4.58-14.7-11.65-29.6-11.65s-27.31,6.68-29.41,21.2c-5.73,36.47,71.61,17.38,71.61,68.36Z" style="fill:#fff;"/><path d="m792.18,135.01l9.93,9.36c-4.77,4.58-19.48,17.19-39.91,17.19-25.21,0-48.31-20.24-48.31-48.5s18.91-50.22,47.74-50.22c26.35,0,46.4,20.62,46.4,50.22v5.73h-79.82c2.86,16.42,16.61,29.03,33.99,29.03s27.88-10.5,29.98-12.79Zm-30.55-59.2c-19.48,0-31.13,12.6-33.42,29.79h65.5c-4.01-24.63-20.05-29.79-32.08-29.79Z" style="fill:#fff;"/><path d="m907.72,64.16h13.56v96.05h-13.56v-18.14c-7.06,8.97-18.91,19.48-35.71,19.48-30.75,0-49.08-25.01-49.08-49.46s19.29-49.27,47.74-49.27c18.14,0,29.79,7.64,37.05,17.76v-16.42Zm-37.24,83.83c19.1,0,34.56-16.04,34.56-35.9s-15.47-35.71-34.56-35.71-34.75,16.04-34.75,35.71,15.47,35.9,34.75,35.9Z" style="fill:#fff;"/><path d="m997.85,62.83h1.72l-7.64,14.32c-21.77,3.25-29.22,25.4-30.36,29.41v53.66h-13.94v-96.05h13.94v16.23c8.4-10.31,19.86-17.57,36.28-17.57Z" style="fill:#fff;"/><path d="m1066.79,62.83c18.71,0,30.74,9.74,36.28,15.28l-10.12,9.36c-6.87-6.68-16.23-11.46-26.16-11.46-20.24,0-36.47,16.61-36.47,36.28s16.8,36.09,36.85,36.09c10.12,0,19.1-4.58,25.59-11.46l10.12,9.55c-5.54,5.73-17.19,15.09-37.43,15.09-25.97,0-49.08-21.96-49.08-49.27s23.49-49.46,50.41-49.46Z" style="fill:#fff;"/><path d="m1165.71,62.83c25.4,0,40.29,20.24,40.29,41.25v56.14h-13.94v-56.14c0-10.12-7.06-27.5-27.12-27.5-22.72,0-27.31,22.53-28.07,28.83v54.8h-13.94V18.91h13.94v58.62c5.92-8.4,14.32-14.7,28.83-14.7Z" style="fill:#fff;"/><path d="m51.15,205.27c-.29,0-.53-.24-.53-.53v-2.83c0-.34.24-.53.53-.53h14.93c.34,0,.53.19.53.53v2.83c0,.29-.19.53-.53.53h-14.93Z" style="fill:#fff;"/><path d="m87.05,204.69v-21.55c0-.34.19-.53.53-.53h3.17c.34,0,.53.19.53.53v20.93c0,8.74,4.46,12.34,10.13,12.34s10.13-3.6,10.13-12.34v-20.93c0-.34.19-.53.58-.53h3.12c.38,0,.58.19.58.53v21.55c0,11.81-7.39,15.89-14.4,15.89s-14.35-4.08-14.35-15.89Z" style="fill:#fff;"/><path d="m136.45,219.86c-.34,0-.58-.19-.58-.58v-24.53c0-.34.24-.53.58-.53h2.59c.34,0,.58.14.58.53l.19,4.08c1.92-3.36,5.66-5.09,9.17-5.09,5.81,0,9.17,3.55,9.17,9.46v16.08c0,.38-.19.58-.48.58h-2.98c-.38,0-.58-.19-.58-.58v-14.4c0-4.9-1.92-7.39-6.19-7.39-3.65,0-7.97,2.74-7.97,8.83v12.96c0,.38-.19.58-.53.58h-2.98Z" style="fill:#fff;"/><path d="m176.09,207.05c0-7.73,5.14-13.3,13.01-13.3s13.06,5.57,13.06,13.3-5.18,13.35-13.06,13.35-13.01-5.67-13.01-13.35Zm21.84,0c0-5.71-3.6-9.55-8.83-9.55s-8.83,3.84-8.83,9.55,3.6,9.55,8.83,9.55,8.83-3.84,8.83-9.55Z" style="fill:#fff;"/><path d="m222.27,219.86c-.38,0-.58-.19-.58-.58v-21.41h-4.08c-.38,0-.58-.19-.58-.48v-2.64c0-.34.19-.53.58-.53h4.08v-3.36c0-6.1,3.26-9.41,7.97-9.41,3.46,0,6,1.63,7.58,4.99.1.34,0,.58-.34.72l-2.35.96c-.34.1-.58,0-.72-.29-.91-1.87-2.21-2.64-3.94-2.64-2.64,0-4.13,1.87-4.13,5.76v3.26h7.25c.34,0,.53.19.53.53v2.64c0,.29-.19.48-.53.48h-7.25v21.41c0,.38-.24.58-.53.58h-2.98Z" style="fill:#fff;"/><path d="m253.04,219.86c-.38,0-.58-.19-.58-.58v-21.41h-4.08c-.38,0-.58-.19-.58-.48v-2.64c0-.34.19-.53.58-.53h4.08v-3.36c0-6.1,3.26-9.41,8.21-9.41,2.4,0,4.37.77,6,2.3.19.29.19.58,0,.77l-1.3,2.02c-.24.24-.53.34-.77.1-1.2-1.01-2.21-1.44-3.65-1.44-2.98,0-4.42,1.87-4.42,5.76v3.26h15.79c.34,0,.53.19.53.53v24.53c0,.38-.19.58-.53.58h-2.98c-.34,0-.53-.19-.53-.58v-21.41h-12.29v21.41c0,.38-.24.58-.53.58h-2.98Zm15.12-33.65c0-1.58,1.15-2.64,2.69-2.64s2.74,1.06,2.74,2.64-1.15,2.64-2.74,2.64-2.69-1.06-2.69-2.64Z" style="fill:#fff;"/><path d="m291,207.05c0-7.82,4.99-13.3,12.77-13.3,5.33,0,9.07,2.3,10.85,7.01.1.29,0,.53-.38.62l-2.5.77c-.34.1-.53-.05-.67-.34-1.34-2.83-3.65-4.32-7.1-4.32-6,0-8.78,4.46-8.78,9.55s2.83,9.55,8.78,9.55c3.55,0,5.95-1.58,7.25-4.56.14-.29.34-.38.67-.29l2.74.72c.34.1.43.34.29.62-1.87,4.94-5.86,7.3-11.14,7.3-7.82,0-12.77-5.57-12.77-13.35Z" style="fill:#fff;"/><path d="m332.04,185.88c0-1.54,1.15-2.59,2.69-2.59s2.69,1.06,2.69,2.59-1.2,2.59-2.69,2.59-2.69-1.06-2.69-2.59Zm1.2,33.99c-.34,0-.58-.19-.58-.58v-24.53c0-.34.24-.53.58-.53h2.98c.34,0,.53.19.53.53v24.53c0,.38-.19.58-.53.58h-2.98Z" style="fill:#fff;"/><path d="m354.79,207.05c0-7.78,4.8-13.3,12.24-13.3,4.08,0,7.63,1.97,9.46,5.09l.14-4.08c0-.38.24-.53.58-.53h2.59c.34,0,.53.19.53.53v24.53c0,.38-.19.58-.53.58h-2.59c-.34,0-.58-.14-.58-.58l-.14-4.08c-1.82,3.17-5.38,5.18-9.46,5.18-7.44,0-12.24-5.57-12.24-13.35Zm21.84,0c0-5.71-3.6-9.55-8.83-9.55s-8.83,3.84-8.83,9.55,3.6,9.55,8.83,9.55,8.83-3.84,8.83-9.55Z" style="fill:#fff;"/><path d="m400.83,219.86c-.34,0-.58-.19-.58-.58v-36.96c0-.34.24-.53.58-.53h2.98c.34,0,.53.19.53.53v36.96c0,.38-.19.58-.53.58h-2.98Z" style="fill:#fff;"/><path d="m453.96,219.86c-.38,0-.58-.19-.58-.58v-36.15c0-.34.19-.53.58-.53h3.12c.38,0,.58.19.58.53v36.15c0,.38-.19.58-.58.58h-3.12Z" style="fill:#fff;"/><path d="m479.64,210.98v-13.11h-4.51c-.29,0-.53-.19-.53-.48v-2.64c0-.34.24-.53.53-.53h4.51v-7.87c0-.29.19-.48.53-.48h2.98c.34,0,.58.19.58.48v7.87h7.1c.29,0,.48.19.48.53v2.64c0,.29-.19.48-.48.48h-7.1v13.2c0,3.84,1.15,5.52,3.7,5.52,1.39,0,2.54-.67,3.31-2.3.14-.34.38-.43.67-.29l2.3,1.01c.29.14.38.43.19.82-1.63,3.26-4.13,4.56-6.86,4.56-4.61,0-7.39-2.93-7.39-9.41Z" style="fill:#fff;"/><path d="m508.49,207.05c0-7.73,4.9-13.3,12.53-13.3s11.76,5.71,11.67,14.02c0,.38-.24.58-.58.58h-19.39c.53,5.14,3.6,8.3,8.3,8.3,3.74,0,6.05-1.49,7.49-4.27.14-.34.38-.38.72-.29l2.5.91c.34.1.48.38.34.67-2.21,4.51-6.1,6.72-11.04,6.72-7.68,0-12.53-5.67-12.53-13.35Zm4.27-1.92h15.6c-.38-4.66-3.07-7.73-7.34-7.73s-7.58,2.93-8.26,7.73Z" style="fill:#fff;"/><path d="m550.87,219.86c-.34,0-.58-.19-.58-.58v-24.53c0-.34.24-.53.58-.53h2.59c.34,0,.58.14.58.53l.19,4.22c1.78-3.46,5.33-5.23,8.83-5.23,4.13,0,7.1,2.06,8.26,5.66,1.78-3.79,5.52-5.66,9.26-5.66,5.52,0,8.88,3.55,8.88,9.46v16.08c0,.38-.19.58-.48.58h-2.98c-.38,0-.58-.19-.58-.58v-14.4c0-4.9-1.97-7.39-5.9-7.39-3.6,0-7.58,2.74-7.58,8.83v12.96c0,.38-.24.58-.53.58h-2.98c-.38,0-.58-.19-.58-.58v-14.4c0-4.9-1.97-7.39-5.86-7.39-3.6,0-7.63,2.74-7.63,8.83v12.96c0,.38-.19.58-.53.58h-2.98Z" style="fill:#fff;"/><path d="m635.93,210.79c-.1-.38.05-.58.38-.67l3.02-.77c.29-.1.53,0,.67.38,1.58,4.61,4.32,6.67,9.12,6.67s8.02-2.11,8.02-6-2.88-5.81-7.63-7.44l-2.83-.96c-6.19-2.11-9.79-5.38-9.79-10.32,0-5.76,5.04-9.79,11.71-9.79,6.14,0,10.51,2.98,12.19,8.93.1.38-.05.62-.34.67l-3.22.82c-.34.1-.53-.05-.62-.34-1.34-4.13-3.94-5.9-8.02-5.9-4.32,0-7.34,2.26-7.34,5.52,0,2.98,2.45,5.09,7.63,6.77l2.5.82c6.86,2.26,10.13,5.33,10.13,11.23s-5.09,10.18-12.38,10.18c-6.67,0-11.23-3.31-13.2-9.79Z" style="fill:#fff;"/><path d="m677.83,207.05c0-7.73,4.9-13.3,12.53-13.3s11.76,5.71,11.67,14.02c0,.38-.24.58-.58.58h-19.39c.53,5.14,3.6,8.3,8.3,8.3,3.74,0,6.05-1.49,7.49-4.27.14-.34.38-.38.72-.29l2.5.91c.34.1.48.38.34.67-2.21,4.51-6.1,6.72-11.04,6.72-7.68,0-12.53-5.67-12.53-13.35Zm4.27-1.92h15.6c-.38-4.66-3.07-7.73-7.34-7.73s-7.58,2.93-8.26,7.73Z" style="fill:#fff;"/><path d="m717.81,207.05c0-7.78,4.8-13.3,12.24-13.3,4.08,0,7.63,1.97,9.46,5.09l.14-4.08c0-.38.24-.53.58-.53h2.59c.34,0,.53.19.53.53v24.53c0,.38-.19.58-.53.58h-2.59c-.34,0-.58-.14-.58-.58l-.14-4.08c-1.82,3.17-5.38,5.18-9.46,5.18-7.44,0-12.24-5.57-12.24-13.35Zm21.84,0c0-5.71-3.6-9.55-8.83-9.55s-8.83,3.84-8.83,9.55,3.6,9.55,8.83,9.55,8.83-3.84,8.83-9.55Z" style="fill:#fff;"/><path d="m763.85,219.86c-.34,0-.58-.19-.58-.58v-24.53c0-.34.24-.53.58-.53h2.59c.34,0,.58.14.58.53l.19,4.42c1.87-3.36,5.14-5.28,8.74-5.28.58,0,1.01,0,1.34.1.38.05.48.24.48.58v2.93c0,.38-.24.53-.58.48-.43-.05-.96-.14-1.73-.14-4.22,0-8.11,3.5-8.11,8.11v13.34c0,.38-.19.58-.53.58h-2.98Z" style="fill:#fff;"/><path d="m792.88,207.05c0-7.82,4.99-13.3,12.77-13.3,5.33,0,9.07,2.3,10.85,7.01.1.29,0,.53-.38.62l-2.5.77c-.34.1-.53-.05-.67-.34-1.34-2.83-3.65-4.32-7.1-4.32-6,0-8.79,4.46-8.79,9.55s2.83,9.55,8.79,9.55c3.55,0,5.95-1.58,7.25-4.56.14-.29.34-.38.67-.29l2.74.72c.34.1.43.34.29.62-1.87,4.94-5.86,7.3-11.14,7.3-7.82,0-12.77-5.57-12.77-13.35Z" style="fill:#fff;"/><path d="m835.12,219.86c-.34,0-.58-.19-.58-.58v-36.96c0-.34.24-.53.58-.53h2.98c.34,0,.53.19.53.53v16.23c1.97-3.22,5.62-4.8,9.02-4.8,5.81,0,9.17,3.55,9.17,9.46v16.08c0,.38-.19.58-.48.58h-2.98c-.38,0-.58-.19-.58-.58v-14.4c0-4.9-1.92-7.39-6.19-7.39-3.65,0-7.97,2.74-7.97,8.83v12.96c0,.38-.19.58-.53.58h-2.98Z" style="fill:#fff;"/><path d="m906.36,219.86c-.38,0-.58-.19-.58-.58v-36.15c0-.34.19-.53.58-.53h22.42c.34,0,.58.19.58.53v2.93c0,.34-.24.58-.58.58h-18.72v11.95h17.09c.29,0,.53.19.53.58v2.88c0,.29-.24.53-.53.53h-17.09v13.25h19.35c.29,0,.48.24.48.53v2.93c0,.38-.19.58-.48.58h-23.04Z" style="fill:#fff;"/><path d="m948.36,219.86c-.34,0-.58-.19-.58-.58v-24.53c0-.34.24-.53.58-.53h2.59c.34,0,.58.14.58.53l.19,4.08c1.92-3.36,5.66-5.09,9.17-5.09,5.81,0,9.17,3.55,9.17,9.46v16.08c0,.38-.19.58-.48.58h-2.98c-.38,0-.58-.19-.58-.58v-14.4c0-4.9-1.92-7.39-6.19-7.39-3.65,0-7.97,2.74-7.97,8.83v12.96c0,.38-.19.58-.53.58h-2.98Z" style="fill:#fff;"/><path d="m989.3,224.28c-.14-.34-.05-.58.29-.67l2.45-.91c.29-.14.58,0,.72.24,1.34,2.93,3.75,4.75,8.07,4.75s8.69-1.92,8.69-7.82v-4.37c-1.92,2.98-5.33,4.9-9.26,4.9-7.44,0-12.24-5.57-12.24-13.35s4.8-13.3,12.24-13.3c4.08,0,7.63,1.97,9.46,5.09l.14-4.08c0-.38.24-.53.58-.53h2.59c.34,0,.53.19.53.53v24.72c0,8.26-5.57,11.95-12.62,11.95-5.52,0-9.75-2.5-11.62-7.15Zm20.55-17.23c0-5.71-3.6-9.55-8.83-9.55s-8.83,3.84-8.83,9.55,3.6,9.55,8.83,9.55,8.83-3.84,8.83-9.55Z" style="fill:#fff;"/><path d="m1032.83,185.88c0-1.54,1.15-2.59,2.69-2.59s2.69,1.06,2.69,2.59-1.2,2.59-2.69,2.59-2.69-1.06-2.69-2.59Zm1.2,33.99c-.34,0-.58-.19-.58-.58v-24.53c0-.34.24-.53.58-.53h2.98c.34,0,.53.19.53.53v24.53c0,.38-.19.58-.53.58h-2.98Z" style="fill:#fff;"/><path d="m1057.99,219.86c-.34,0-.58-.19-.58-.58v-24.53c0-.34.24-.53.58-.53h2.59c.34,0,.58.14.58.53l.19,4.08c1.92-3.36,5.66-5.09,9.17-5.09,5.81,0,9.17,3.55,9.17,9.46v16.08c0,.38-.19.58-.48.58h-2.98c-.38,0-.58-.19-.58-.58v-14.4c0-4.9-1.92-7.39-6.19-7.39-3.65,0-7.97,2.74-7.97,8.83v12.96c0,.38-.19.58-.53.58h-2.98Z" style="fill:#fff;"/><path d="m1097.63,207.05c0-7.73,4.9-13.3,12.53-13.3s11.76,5.71,11.67,14.02c0,.38-.24.58-.58.58h-19.39c.53,5.14,3.6,8.3,8.3,8.3,3.74,0,6.05-1.49,7.49-4.27.14-.34.38-.38.72-.29l2.5.91c.34.1.48.38.34.67-2.21,4.51-6.1,6.72-11.04,6.72-7.68,0-12.53-5.67-12.53-13.35Zm4.27-1.92h15.6c-.38-4.66-3.07-7.73-7.34-7.73s-7.58,2.93-8.26,7.73Z" style="fill:#fff;"/><path d="m1139.92,205.27c-.29,0-.53-.24-.53-.53v-2.83c0-.34.24-.53.53-.53h14.93c.34,0,.53.19.53.53v2.83c0,.29-.19.53-.53.53h-14.93Z" style="fill:#fff;"/></svg>